<?xml version="1.0" encoding="UTF-8"?>
<svg version="1.1" xmlns="http://www.w3.org/2000/svg" width="256" height="246">
<path d="M0 0 C22.77 0 45.54 0 69 0 C75.50770587 15.72695585 81.92113095 31.29505636 88.01486206 47.1534729 C92.94374403 59.97069161 98.06605965 72.70954102 103.19140625 85.44921875 C103.64890636 86.5865659 104.10640648 87.72391304 104.57777023 88.89572525 C107.4216245 95.96392693 110.26829928 103.03099013 113.1159668 110.09765625 C117.39375133 120.71378178 121.66838908 131.33117356 125.94140625 141.94921875 C126.3938332 143.07315914 126.84626015 144.19709953 127.312397 145.35509872 C132.85002082 159.11483155 138.36766659 172.88109619 143.74159241 186.70573425 C144.1103801 187.6533815 144.47916779 188.60102875 144.85913086 189.57739258 C145.20313934 190.4624649 145.54714783 191.34753723 145.90158081 192.25942993 C147.53633079 196.33815226 149.29595434 200.36302013 151.06349182 204.38578796 C152 207 152 207 152 211 C128.24 211 104.48 211 80 211 C72 190 72 190 72 188 C49.23 188 26.46 188 3 188 C5.71810051 179.16617335 8.50089306 170.41081482 11.51928711 161.68408203 C12.20089019 159.71124329 12.87693002 157.73655042 13.55273438 155.76171875 C13.98263672 154.51519531 14.41253906 153.26867187 14.85546875 151.984375 C15.24371826 150.85741211 15.63196777 149.73044922 16.03198242 148.56933594 C17 146 17 146 18 145 C20.73894085 144.91141354 23.4525327 144.88476521 26.19140625 144.90234375 C27.01124496 144.9037587 27.83108368 144.90517365 28.67576599 144.90663147 C31.30471382 144.91224711 33.93357773 144.92480221 36.5625 144.9375 C38.34049357 144.94251299 40.11848846 144.94707624 41.89648438 144.95117188 C46.26435545 144.96222161 50.63216348 144.97949669 55 145 C54.78609619 144.4730957 54.57219238 143.94619141 54.35180664 143.40332031 C46.52002698 124.06448974 39.02615882 104.5978496 31.52235413 85.13014221 C27.43483543 74.52834823 23.33011793 63.93323507 19.22213745 53.33935547 C18.04233897 50.29669093 16.86307435 47.25381989 15.68383789 44.2109375 C15.31053848 43.24838043 14.93723907 42.28582336 14.55262756 41.2940979 C13.8156636 39.39332563 13.07943404 37.49226844 12.34397888 35.59091187 C10.40140912 30.57667313 8.434842 25.57326338 6.4375 20.58056641 C5.81016968 19.00387932 5.81016968 19.00387932 5.17016602 17.39533997 C4.36646011 15.37766843 3.55730788 13.36215527 2.74194336 11.34916687 C2.38237549 10.44414932 2.02280762 9.53913177 1.65234375 8.60668945 C1.17269165 7.41412285 1.17269165 7.41412285 0.68334961 6.19746399 C0 4 0 4 0 0 Z " fill="#020202" transform="translate(92,16)"/>
<path d="M0 0 C0.66 0 1.32 0 2 0 C2.68545641 1.84492611 3.37086563 3.68986977 4.05609131 5.53488159 C4.67917328 7.21067211 5.30335934 8.88605243 5.92852783 10.56106567 C7.70749199 15.33172752 9.46675048 20.1083349 11.1940918 24.89794922 C14.71081249 34.58448236 18.37373504 44.03837345 22.859375 53.3203125 C31.00905307 70.57970869 35.30257912 83.75883216 28.6875 102.25 C27.08537569 106.55152726 25.37765714 110.80542053 23.60914612 115.04109192 C20.29139359 123.02921282 17.49450301 131.15005065 14.80078125 139.36328125 C14.5817835 140.03039753 14.36278576 140.69751381 14.13715172 141.38484573 C13.24943189 144.09205999 12.36342755 146.79982339 11.48049831 149.50860405 C9.97437727 154.12737698 8.44487548 158.73775906 6.8972168 163.34277344 C6.48062302 164.58241852 6.06402924 165.8220636 5.6348114 167.09927368 C5.22938614 168.30530243 4.82396088 169.51133118 4.40625 170.75390625 C1.43770898 179.60256986 -1.44918128 188.46572603 -4.14257812 197.40209961 C-5 200 -5 200 -6 201 C-8.14743549 201.09425595 -10.29801026 201.11742648 -12.44750977 201.11352539 C-13.45722336 201.11374443 -13.45722336 201.11374443 -14.48733521 201.1139679 C-16.72205784 201.11326878 -18.9566981 201.10547652 -21.19140625 201.09765625 C-22.73697362 201.09579206 -24.28254157 201.09436816 -25.82810974 201.09336853 C-29.90357077 201.0895434 -33.97899637 201.07971317 -38.05444336 201.06866455 C-42.21011882 201.05845032 -46.36579999 201.05387089 -50.52148438 201.04882812 C-58.68100587 201.03809089 -66.84049853 201.02101454 -75 201 C-69.71388058 185.62420582 -64.1004514 170.38008585 -58.39989853 155.15365601 C-57.17761724 151.88750228 -55.957784 148.62043419 -54.73754883 145.35351562 C-48.19979965 127.85424614 -41.64271295 110.36220171 -35.07470703 92.87426758 C-30.79851224 81.48474207 -26.53924454 70.08900608 -22.29282951 58.68835068 C-21.43191189 56.37706553 -20.57078997 54.06585659 -19.70960999 51.75466919 C-17.1555688 44.89994267 -14.60214123 38.04499296 -12.05262375 31.18858242 C-10.99593429 28.34787104 -9.93784231 25.50768346 -8.8794136 22.66761971 C-8.38542967 21.34116508 -7.89205341 20.01448397 -7.39933395 18.68755913 C-5.06331558 12.39715815 -2.73189851 6.13051371 0 0 Z " fill="#030303" transform="translate(84,26)"/>
<path d="M0 0 C2 3 2 3 3 9 C-20.76 9 -44.52 9 -69 9 C-68.67 8.01 -68.34 7.02 -68 6 C-45.23 6.33 -22.46 6.66 1 7 C0.505 3.535 0.505 3.535 0 0 Z " fill="#2A2A2A" transform="translate(241,218)"/>
<path d="M0 0 C22.77 0 45.54 0 69 0 C69 0.66 69 1.32 69 2 C46.89 2 24.78 2 2 2 C1.67 3.32 1.34 4.64 1 6 C0.67 4.02 0.34 2.04 0 0 Z " fill="#3B3B3B" transform="translate(92,16)"/>
<path d="M0 0 C1.27710684 3.83132052 0.44164418 5.35667355 -0.875 9.125 C-1.24367188 10.20007813 -1.61234375 11.27515625 -1.9921875 12.3828125 C-3 15 -3 15 -4 16 C-6.14743549 16.09425595 -8.29801026 16.11742648 -10.44750977 16.11352539 C-11.45722336 16.11374443 -11.45722336 16.11374443 -12.48733521 16.1139679 C-14.72205784 16.11326878 -16.9566981 16.10547652 -19.19140625 16.09765625 C-20.73697362 16.09579206 -22.28254157 16.09436816 -23.82810974 16.09336853 C-27.90357077 16.0895434 -31.97899637 16.07971317 -36.05444336 16.06866455 C-40.21011882 16.05845032 -44.36579999 16.05387089 -48.52148438 16.04882812 C-56.68100587 16.03809089 -64.84049853 16.02101454 -73 16 C-72.34 13.69 -71.68 11.38 -71 9 C-69.875 12.75 -69.875 12.75 -71 15 C-49.22 14.34 -27.44 13.68 -5 13 C-3.35 8.71 -1.7 4.42 0 0 Z " fill="#3A3A3A" transform="translate(82,211)"/>
<path d="M0 0 C0.66 0 1.32 0 2 0 C2.66 2.31 3.32 4.62 4 7 C3.34 6.67 2.68 6.34 2 6 C2 5.34 2 4.68 2 4 C1.34 4 0.68 4 0 4 C0 4.66 0 5.32 0 6 C-0.66 6 -1.32 6 -2 6 C-1.34 4.02 -0.68 2.04 0 0 Z " fill="#4F4F4F" transform="translate(84,26)"/>
</svg>
